# xmcd
#
# Track frame offsets: 
#        150
#        3597
#        17170
#        26735
#        38772
#        58552
#        77170
#        93775
#        102582
#        116372
#        125467
#        145165
#        158147
#        168020
#
# Disc length: 2539 seconds
#
# Revision: 0
# Processed by: cddbd v1.5.1PL0 Copyright (c) Steve Scherf et al.
# Submitted via: ExactAudioCopy v0.95a5
#
DISCID=a709e90e
DTITLE=The Dubliners - "Live"
DYEAR=1991
DGENRE=
TTITLE0=Roddy MacOrley
TTITLE1=The Twang Man
TTITLE2=Reels: Sligo Maid And Colonel Rodney
TTITLE3=The Woman From Wexford
TTITLE4=The Patriot Game (Behan)
TTITLE5=Roisin Dobh
TTITLE6=Air Fa La La Lo
TTITLE7=Peggy Lettermore
TTITLE8=Easy and Slow
TTITLE9=My Love Is In America
TTITLE10=The Kerry Recruit
TTITLE11=The Old Orange Flute
TTITLE12=Reels: The Dongeal Reel And The Longford Collector
TTITLE13=The Leaving Of Liverpool
EXTD=
EXTT0=
EXTT1=
EXTT2=
EXTT3=
EXTT4=
EXTT5=
EXTT6=
EXTT7=
EXTT8=
EXTT9=
EXTT10=
EXTT11=
EXTT12=
EXTT13=
PLAYORDER=
